<?xml version="1.0" encoding="UTF-8" standalone="no"?>
<svg xmlns="http://www.w3.org/2000/svg" viewBox="0 0 15 15" width="15" height="15" version="1.1">
        <path id="path2527"
            style="fill:#927aad;fill-rule:evenodd;stroke-width:0.23999999;stroke-linecap:round;stroke-linejoin:round;filter:url(#shadow96)"
            d="m 3.4776,11.2012 a 1.2299,0.705 -164.473 1 1 -1.0086,-1.0118 1.2299,0.705 -164.473 0 1 1.0086,1.0118 z m 2.1383,-2.3832 a 1.6399,0.9871 -164.473 1 1 -1.333,-1.3946 1.6399,0.9871 -164.473 0 1 1.333,1.3946 z m 8.175,-2.4822 a 5.0904,3.064 -164.473 1 1 -4.138,-4.3292 5.0904,3.064 -164.473 0 1 4.138,4.3292 z" />
        <path id="path2542"
            style="fill:none;stroke:#000000;stroke-width:0.23999999;stroke-linecap:round;stroke-linejoin:round;stroke-dasharray:none;"
            d="m 3.4776,11.2012 a 1.2299,0.705 -164.473 1 1 -1.0086,-1.0118 1.2299,0.705 -164.473 0 1 1.0086,1.0118 z m 2.1383,-2.3832 a 1.6399,0.9871 -164.473 1 1 -1.333,-1.3946 1.6399,0.9871 -164.473 0 1 1.333,1.3946 z m 8.175,-2.4822 a 5.0904,3.064 -164.473 1 1 -4.138,-4.3292 5.0904,3.064 -164.473 0 1 4.138,4.3292 z" />
    </g>
</svg>