<?xml version="1.0" encoding="UTF-8" standalone="no"?>
<svg
   xmlns:dc="http://purl.org/dc/elements/1.1/"
   xmlns:cc="http://creativecommons.org/ns#"
   xmlns:rdf="http://www.w3.org/1999/02/22-rdf-syntax-ns#"
   xmlns:svg="http://www.w3.org/2000/svg"
   xmlns="http://www.w3.org/2000/svg"
   xmlns:xlink="http://www.w3.org/1999/xlink"
   viewBox="0 0 90 53"
   id="svg5246"
   width="90"
   height="53"
   version="1.1">
  <g
     id="Layer1091">
    <defs
       id="defs1938">
      <filter
         id="shadow76"
         filterUnits="userSpaceOnUse">
        <feOffset
           id="feOffset1927"
           dy="1.4173"
           dx="1.4173"
           result="offset"
           in="SourceGraphic" />
        <feColorMatrix
           id="feColorMatrix1929"
           values="0 0 0 0 0.7490 0 0 0 0 0.7490 0 0 0 0 0.7490 0 0 0 1.0000 0"
           type="matrix"
           result="offset-color"
           in="offset" />
        <feMerge
           id="feMerge1935">
          <feMergeNode
             id="feMergeNode1931"
             in="offset-color" />
          <feMergeNode
             id="feMergeNode1933"
             in="SourceGraphic" />
        </feMerge>
      </filter>
    </defs>
    <defs
       id="defs1946">
      <linearGradient
         id="grad66">
        <stop
           id="stop1940"
           stop-opacity="1.0000"
           stop-color="#facca7"
           offset="0%" />
        <stop
           id="stop1942"
           stop-opacity="1.0000"
           stop-color="#ffffff"
           offset="100%" />
      </linearGradient>
      <linearGradient
         gradientUnits="objectBoundingBox"
         gradientTransform="rotate(180,0.5,0.5)"
         y2="1"
         x2="0"
         y1="0"
         x1="0"
         id="grad67"
         xlink:href="#grad66" />
    </defs>
    <path
       id="path1948"
       style="fill:url(#grad67);fill-rule:evenodd;stroke-width:0.5;stroke-linecap:round;stroke-linejoin:round;filter:url(#shadow76)"
       d="m 88,4.5 a 4.3596,4.3596 0 0 0 -4.252,-4.252 h -79 a 4.3596,4.3596 0 0 0 -4.252,4.252 v 43 a 4.3596,4.3596 0 0 0 4.252,4.252 h 79 a 4.3596,4.3596 0 0 0 4.252,-4.252 z" />
    <defs
       id="defs1961">
      <filter
         id="shadow77"
         filterUnits="userSpaceOnUse">
        <feOffset
           id="feOffset1950"
           dy="1.4173"
           dx="1.4173"
           result="offset"
           in="SourceGraphic" />
        <feColorMatrix
           id="feColorMatrix1952"
           values="0 0 0 0 0.7490 0 0 0 0 0.7490 0 0 0 0 0.7490 0 0 0 1.0000 0"
           type="matrix"
           result="offset-color"
           in="offset" />
        <feMerge
           id="feMerge1958">
          <feMergeNode
             id="feMergeNode1954"
             in="offset-color" />
          <feMergeNode
             id="feMergeNode1956"
             in="SourceGraphic" />
        </feMerge>
      </filter>
    </defs>
    <path
       id="path1963"
       style="fill:none;stroke:#000000;stroke-width:0.5;stroke-linecap:round;stroke-linejoin:round;stroke-dasharray:none;"
       d="m 88,4.5 a 4.3596,4.3596 0 0 0 -4.252,-4.252 h -79 a 4.3596,4.3596 0 0 0 -4.252,4.252 v 43 a 4.3596,4.3596 0 0 0 4.252,4.252 h 79 a 4.3596,4.3596 0 0 0 4.252,-4.252 z" />
  </g>
  <g
     id="Layer1092">
    <defs
       id="defs1977">
      <filter
         id="shadow78"
         filterUnits="userSpaceOnUse">
        <feOffset
           id="feOffset1966"
           dy="0.4961"
           dx="0.4961"
           result="offset"
           in="SourceGraphic" />
        <feColorMatrix
           id="feColorMatrix1968"
           values="0 0 0 0 0.7490 0 0 0 0 0.7490 0 0 0 0 0.7490 0 0 0 1.0000 0"
           type="matrix"
           result="offset-color"
           in="offset" />
        <feMerge
           id="feMerge1974">
          <feMergeNode
             id="feMergeNode1970"
             in="offset-color" />
          <feMergeNode
             id="feMergeNode1972"
             in="SourceGraphic" />
        </feMerge>
      </filter>
    </defs>
    <defs
       id="defs1984">
      <radialGradient
         r="1"
         cy="0"
         cx="0"
         id="grad68">
        <stop
           id="stop1979"
           stop-opacity="1.0000"
           stop-color="#ffffff"
           offset="0%" />
        <stop
           id="stop1981"
           stop-opacity="1.0000"
           stop-color="#92cddc"
           offset="100%" />
      </radialGradient>
    </defs>
    <path
       id="path1986"
       style="fill:url(#grad68);fill-rule:evenodd;stroke-width:0.23999999;stroke-linecap:round;stroke-linejoin:round;filter:url(#shadow78)"
       d="m 3.5102,10.9967 a 8.4565,8.2019 0 0 0 3.9895,0.916 2.7332,2.6509 0 0 0 1.2848,-0.3318 0.4431,0.4298 0 0 0 0.5148,0.0821 1.8317,1.7766 0 0 0 0.8613,-0.8744 v -2.4969 a 3.4894,3.3843 0 0 0 -2.1714,-2.9592 z m 0.8956,-5.9114 a 3.5595,3.4523 0 0 0 -2.1775,3.0192 l 0.0118,1.4153 a 1.213,1.1765 0 0 0 0.4533,0.9336 0.4671,0.4531 0 0 0 0.5185,0.0841 0.6251,0.6063 0 0 0 0.2983,0.4592 z" />
    <defs
       id="defs1999">
      <filter
         id="shadow79"
         filterUnits="userSpaceOnUse">
        <feOffset
           id="feOffset1988"
           dy="0.4961"
           dx="0.4961"
           result="offset"
           in="SourceGraphic" />
        <feColorMatrix
           id="feColorMatrix1990"
           values="0 0 0 0 0.7490 0 0 0 0 0.7490 0 0 0 0 0.7490 0 0 0 1.0000 0"
           type="matrix"
           result="offset-color"
           in="offset" />
        <feMerge
           id="feMerge1996">
          <feMergeNode
             id="feMergeNode1992"
             in="offset-color" />
          <feMergeNode
             id="feMergeNode1994"
             in="SourceGraphic" />
        </feMerge>
      </filter>
    </defs>
    <path
       id="path2001"
       style="fill:none;stroke:#373773;stroke-width:0.23999999;stroke-linecap:round;stroke-linejoin:round;stroke-dasharray:none;filter:url(#shadow79)"
       d="m 3.5102,10.9967 a 8.4565,8.2019 0 0 0 3.9895,0.916 2.7332,2.6509 0 0 0 1.2848,-0.3318 0.4431,0.4298 0 0 0 0.5148,0.0821 1.8317,1.7766 0 0 0 0.8613,-0.8744 v -2.4969 a 3.4894,3.3843 0 0 0 -2.1714,-2.9592 m -3.5834,-0.2472 a 3.5595,3.4523 0 0 0 -2.1775,3.0192 l 0.0118,1.4153 a 1.213,1.1765 0 0 0 0.4533,0.9336 0.4671,0.4531 0 0 0 0.5185,0.0841 0.6251,0.6063 0 0 0 0.2983,0.4592" />
  </g>
  <g
     id="Layer1093">
    <defs
       id="defs2009">
      <radialGradient
         r="1"
         cy="0"
         cx="0"
         id="grad69">
        <stop
           id="stop2004"
           stop-opacity="1.0000"
           stop-color="#dbeef3"
           offset="0%" />
        <stop
           id="stop2006"
           stop-opacity="1.0000"
           stop-color="#92cddc"
           offset="100%" />
      </radialGradient>
    </defs>
    <path
       id="path2011"
       style="fill:url(#grad69);fill-rule:evenodd;stroke-width:0.23999999;stroke-linecap:round;stroke-linejoin:round"
       d="m 8.6589,3.7141 a 2.3598,2.2888 -180 1 1 -2.3598,-2.2888 2.3598,2.2888 -180 0 1 2.3598,2.2888 z" />
    <path
       id="path2013"
       style="fill:none;stroke:#555555;stroke-width:0.23999999;stroke-linecap:round;stroke-linejoin:round;stroke-dasharray:none"
       d="m 8.6589,3.7141 a 2.3598,2.2888 -180 1 1 -2.3598,-2.2888 2.3598,2.2888 -180 0 1 2.3598,2.2888 z" />
  </g>
  <path
     id="path2016"
     style="fill:none;stroke:#555555;stroke-width:0.23999999;stroke-linecap:round;stroke-linejoin:round;stroke-dasharray:none"
     d="m 4.4112,5.0469 a 2.3643,2.2931 0 0 0 3.5634,0.2458" />
  <path
     id="path2018"
     style="fill:none;stroke:#000000;stroke-width:0.23999999;stroke-linecap:round;stroke-linejoin:round;stroke-dasharray:none"
     d="m 4.4058,5.0853 a 3.6316,3.5223 0 0 0 -2.1775,3.0204 l 0.0118,1.4141 a 1.213,1.1765 0 0 0 0.4533,0.9336 0.4671,0.4531 0 0 0 0.5185,0.0841 0.6251,0.6063 0 0 0 0.2983,0.4592 8.4565,8.2019 0 0 0 3.9895,0.916 2.7332,2.6509 0 0 0 1.2848,-0.3318 0.4431,0.4298 0 0 0 0.5148,0.0821 1.8317,1.7766 0 0 0 0.8613,-0.8744 v -2.265 a 3.4546,3.3506 0 0 0 -2.1714,-3.1911 l -0.02,-0.001 a 2.3608,2.2897 0 1 0 -3.5634,-0.2458 z" />
  <g
     id="Layer1094">
    <defs
       id="defs2031">
      <filter
         id="shadow80"
         filterUnits="userSpaceOnUse">
        <feOffset
           id="feOffset2020"
           dy="0.4961"
           dx="0.4961"
           result="offset"
           in="SourceGraphic" />
        <feColorMatrix
           id="feColorMatrix2022"
           values="0 0 0 0 0.7490 0 0 0 0 0.7490 0 0 0 0 0.7490 0 0 0 1.0000 0"
           type="matrix"
           result="offset-color"
           in="offset" />
        <feMerge
           id="feMerge2028">
          <feMergeNode
             id="feMergeNode2024"
             in="offset-color" />
          <feMergeNode
             id="feMergeNode2026"
             in="SourceGraphic" />
        </feMerge>
      </filter>
    </defs>
    <defs
       id="defs2039">
      <linearGradient
         id="grad70">
        <stop
           id="stop2033"
           stop-opacity="1.0000"
           stop-color="#facca7"
           offset="0%" />
        <stop
           id="stop2035"
           stop-opacity="1.0000"
           stop-color="#f28226"
           offset="100%" />
      </linearGradient>
      <linearGradient
         gradientUnits="objectBoundingBox"
         y2="1"
         x2="0"
         y1="0"
         x1="0"
         id="grad71"
         xlink:href="#grad70" />
    </defs>
    <path
       id="path2041"
       style="fill:url(#grad71);fill-rule:evenodd;stroke-width:0.23999999;stroke-linecap:round;stroke-linejoin:round;filter:url(#shadow80)"
       d="m 5.5499,7.1775 v 4.7358 l 3.5833,-2.3679 3.5833,2.3679 v -4.7358 l -3.5833,-2.3678 z" />
    <defs
       id="defs2054">
      <filter
         id="shadow81"
         filterUnits="userSpaceOnUse">
        <feOffset
           id="feOffset2043"
           dy="0.4961"
           dx="0.4961"
           result="offset"
           in="SourceGraphic" />
        <feColorMatrix
           id="feColorMatrix2045"
           values="0 0 0 0 0.7490 0 0 0 0 0.7490 0 0 0 0 0.7490 0 0 0 1.0000 0"
           type="matrix"
           result="offset-color"
           in="offset" />
        <feMerge
           id="feMerge2051">
          <feMergeNode
             id="feMergeNode2047"
             in="offset-color" />
          <feMergeNode
             id="feMergeNode2049"
             in="SourceGraphic" />
        </feMerge>
      </filter>
    </defs>
    <path
       id="path2056"
       style="fill:none;stroke:#000000;stroke-width:0.23999999;stroke-linecap:round;stroke-linejoin:round;stroke-dasharray:none;filter:url(#shadow81)"
       d="m 5.5499,7.1775 v 4.7358 l 3.5833,-2.3679 3.5833,2.3679 v -4.7358 l -3.5833,-2.3678 z" />
  </g>
  <text
     id="text2061"
     y="8"
     x="13">
    <tspan
       style="font-variant: small-caps;font-size:7px;font-family:Arial;fill:#000000;fill-opacity:1;stroke-opacity:1"
       id="tspan2059"
       font-size="8.0000">Business Service</tspan>
  </text>
  </svg>