<?xml version="1.0" encoding="UTF-8" standalone="no"?>
<svg
   xmlns:dc="http://purl.org/dc/elements/1.1/"
   xmlns:cc="http://creativecommons.org/ns#"
   xmlns:rdf="http://www.w3.org/1999/02/22-rdf-syntax-ns#"
   xmlns:svg="http://www.w3.org/2000/svg"
   xmlns="http://www.w3.org/2000/svg"
   xmlns:xlink="http://www.w3.org/1999/xlink"
   viewBox="0 0 90 53"
   id="svg5246"
   width="90"
   height="53"
   version="1.1">
  <g
     id="Layer1244">
    <defs
       id="defs5197">
      <filter
         id="shadow207"
         filterUnits="userSpaceOnUse">
        <feOffset
           id="feOffset5186"
           dy="1.4173"
           dx="1.4173"
           result="offset"
           in="SourceGraphic" />
        <feColorMatrix
           id="feColorMatrix5188"
           values="0 0 0 0 0.7490 0 0 0 0 0.7490 0 0 0 0 0.7490 0 0 0 1.0000 0"
           type="matrix"
           result="offset-color"
           in="offset" />
        <feMerge
           id="feMerge5194">
          <feMergeNode
             id="feMergeNode5190"
             in="offset-color" />
          <feMergeNode
             id="feMergeNode5192"
             in="SourceGraphic" />
        </feMerge>
      </filter>
    </defs>
    <defs
       id="defs5205">
      <linearGradient
         id="grad201">
        <stop
           id="stop5199"
           stop-opacity="1.0000"
           stop-color="#f7e4b8"
           offset="0%" />
        <stop
           id="stop5201"
           stop-opacity="1.0000"
           stop-color="#ffffff"
           offset="100%" />
      </linearGradient>
      <linearGradient
         gradientUnits="objectBoundingBox"
         gradientTransform="rotate(180,0.5,0.5)"
         y2="1"
         x2="0"
         y1="0"
         x1="0"
         id="grad202"
         xlink:href="#grad201" />
    </defs>
    <path
       id="path5207"
       style="fill:url(#grad202);fill-rule:evenodd;stroke-width:0.5;stroke-linecap:round;stroke-linejoin:round;filter:url(#shadow207)"
       d="m 88,4.5 a 4.3596,4.3596 0 0 0 -4.252,-4.252 h -79 a 4.3596,4.3596 0 0 0 -4.252,4.252 v 43 a 4.3596,4.3596 0 0 0 4.252,4.252 h 79 a 4.3596,4.3596 0 0 0 4.252,-4.252 z" />
    <defs
       id="defs5220">
      <filter
         id="shadow208"
         filterUnits="userSpaceOnUse">
        <feOffset
           id="feOffset5209"
           dy="1.4173"
           dx="1.4173"
           result="offset"
           in="SourceGraphic" />
        <feColorMatrix
           id="feColorMatrix5211"
           values="0 0 0 0 0.7490 0 0 0 0 0.7490 0 0 0 0 0.7490 0 0 0 1.0000 0"
           type="matrix"
           result="offset-color"
           in="offset" />
        <feMerge
           id="feMerge5217">
          <feMergeNode
             id="feMergeNode5213"
             in="offset-color" />
          <feMergeNode
             id="feMergeNode5215"
             in="SourceGraphic" />
        </feMerge>
      </filter>
    </defs>
    <path
       id="path5222"
       style="fill:none;stroke:#000000;stroke-width:0.5;stroke-linecap:round;stroke-linejoin:round;stroke-dasharray:none;"
       d="m 88,4.5 a 4.3596,4.3596 0 0 0 -4.252,-4.252 h -79 a 4.3596,4.3596 0 0 0 -4.252,4.252 v 43 a 4.3596,4.3596 0 0 0 4.252,4.252 h 79 a 4.3596,4.3596 0 0 0 4.252,-4.252 z" />
  </g>
  <g
     id="Layer1245">
    <path
       id="path5225"
       style="fill:#ffffff;fill-rule:evenodd;stroke-width:0.75;stroke-linecap:round;stroke-linejoin:round"
       d="m 13.7002,6.6693 a 3.96,3.96 -180 1 1 -3.96,-3.96 3.96,3.96 -180 0 1 3.96,3.96 z" />
    <path
       id="path5227"
       style="fill:none;stroke:#000000;stroke-width:0.75;stroke-linecap:round;stroke-linejoin:round;stroke-dasharray:none"
       d="m 13.7002,6.6693 a 3.96,3.96 -180 1 1 -3.96,-3.96 3.96,3.96 -180 0 1 3.96,3.96 z" />
  </g>
  <path
     id="path5230"
     style="fill:none;stroke:#000000;stroke-width:0.75;stroke-linecap:round;stroke-linejoin:round;stroke-dasharray:none"
     d="m 12.3142,6.7535 a 2.574,2.574 -180 1 1 -2.574,-2.574 2.574,2.574 -180 0 1 2.574,2.574 z" />
  <g
     id="Layer1246">
    <path
       id="path5232"
       style="fill:#000000;fill-rule:evenodd;stroke-width:0.75;stroke-linecap:round;stroke-linejoin:round"
       d="m 10.7302,6.7824 a 0.99,0.99 -180 1 1 -0.99,-0.99 0.99,0.99 -180 0 1 0.99,0.99 z" />
    <path
       id="path5234"
       style="fill:none;stroke:#000000;stroke-width:0.75;stroke-linecap:round;stroke-linejoin:round;stroke-dasharray:none"
       d="m 10.7302,6.7824 a 0.99,0.99 -180 1 1 -0.99,-0.99 0.99,0.99 -180 0 1 0.99,0.99 z" />
  </g>
  <g
     id="Layer1247">
    <path
       id="path5239"
       style="fill:#000000;stroke:#000000;stroke-width:0.75;stroke-linecap:round;stroke-linejoin:round;stroke-dasharray:none"
       d="m 1.9265,12.3587 3.3158,-2.4521 m -1.1508,-1.2977 2.2712,2.5612 2.0567,-3.5624 z" />
  </g>
  <text
     id="text5244"
     y="8"
     x="13">
    <tspan
       style="font-variant: small-caps;font-size:7px;font-family:Arial;fill:#000000;fill-opacity:1;stroke-opacity:1"
       id="tspan5242"
       font-size="8.0000">Course of Action</tspan>
  </text>
</svg>