<?xml version="1.0" encoding="UTF-8" standalone="no"?>
<svg
   xmlns:dc="http://purl.org/dc/elements/1.1/"
   xmlns:cc="http://creativecommons.org/ns#"
   xmlns:rdf="http://www.w3.org/1999/02/22-rdf-syntax-ns#"
   xmlns:svg="http://www.w3.org/2000/svg"
   xmlns="http://www.w3.org/2000/svg"
   xmlns:xlink="http://www.w3.org/1999/xlink"
   viewBox="0 0 90 53"
   id="svg5246"
   width="90"
   height="53"
   version="1.1">
    <g
     id="Layer1065">
        <defs
       id="defs1308">
            <filter
         id="shadow52"
         filterUnits="userSpaceOnUse">
                <feOffset
           id="feOffset1297"
           dy="1.4173"
           dx="1.4173"
           result="offset"
           in="SourceGraphic" />
                <feColorMatrix
           id="feColorMatrix1299"
           values="0 0 0 0 0.7490 0 0 0 0 0.7490 0 0 0 0 0.7490 0 0 0 1.0000 0"
           type="matrix"
           result="offset-color"
           in="offset" />
                <feMerge
           id="feMerge1305">
                    <feMergeNode
             id="feMergeNode1301"
             in="offset-color" />
                    <feMergeNode
             id="feMergeNode1303"
             in="SourceGraphic" />
                </feMerge>
            </filter>
        </defs>
        <defs
       id="defs1316">
            <linearGradient
         id="grad36">
                <stop
           id="stop1310"
           stop-opacity="1.0000"
           stop-color="#ffd784"
           offset="0%" />
                <stop
           id="stop1312"
           stop-opacity="1.0000"
           stop-color="#ffffff"
           offset="100%" />
            </linearGradient>
            <linearGradient
         gradientUnits="objectBoundingBox"
         gradientTransform="rotate(180,0.5,0.5)"
         y2="1"
         x2="0"
         y1="0"
         x1="0"
         id="grad37"
         xlink:href="#grad36" />
        </defs>
        <path
       id="path1318"
       style="fill:url(#grad37);fill-rule:evenodd;stroke-width:0.5;stroke-linecap:round;stroke-linejoin:round;filter:url(#shadow52)"
       d="m 88,4.5 a 4.3596,4.3596 0 0 0 -4.252,-4.252 h -79 a 4.3596,4.3596 0 0 0 -4.252,4.252 v 43 a 4.3596,4.3596 0 0 0 4.252,4.252 h 79 a 4.3596,4.3596 0 0 0 4.252,-4.252 z" />
        <defs
       id="defs1331">
            <filter
         id="shadow53"
         filterUnits="userSpaceOnUse">
                <feOffset
           id="feOffset1320"
           dy="1.4173"
           dx="1.4173"
           result="offset"
           in="SourceGraphic" />
                <feColorMatrix
           id="feColorMatrix1322"
           values="0 0 0 0 0.7490 0 0 0 0 0.7490 0 0 0 0 0.7490 0 0 0 1.0000 0"
           type="matrix"
           result="offset-color"
           in="offset" />
                <feMerge
           id="feMerge1328">
                    <feMergeNode
             id="feMergeNode1324"
             in="offset-color" />
                    <feMergeNode
             id="feMergeNode1326"
             in="SourceGraphic" />
                </feMerge>
            </filter>
        </defs>
        <path
       id="path1333"
       style="fill:none;stroke:#000000;stroke-width:0.5;stroke-linecap:round;stroke-linejoin:round;stroke-dasharray:none"
       d="m 88,4.5 a 4.3596,4.3596 0 0 0 -4.252,-4.252 h -79 a 4.3596,4.3596 0 0 0 -4.252,4.252 v 43 a 4.3596,4.3596 0 0 0 4.252,4.252 h 79 a 4.3596,4.3596 0 0 0 4.252,-4.252 z" />
    </g>
    <g id="spinsies" style="transform-origin:center;transform:rotate(90deg);">
        <path
     id="path1336"
     style="fill:none;stroke:#000000;stroke-width:0.5;stroke-linecap:round;stroke-linejoin:round;stroke-dasharray:none"
     d="m 4.8854,6.4052 0.5977,-0.3722 7.2002,4.1937 0.8459,-0.52 m -6.0211,-2.4943 0.9602,-0.5757 m 1.6401,2.0902 0.8799,-0.5399" />
        <g
     id="Layer1066">
            <path
       id="path1338"
       style="fill:#ff00ff;fill-opacity:0;fill-rule:evenodd;stroke-width:0.72000003;stroke-linecap:round;stroke-linejoin:round"
       d="m 2.3985,5.8055 a 1.6682,1.6505 0 0 0 -1.0205,1.4434 l 0.0055,0.6766 a 0.5685,0.5625 0 0 0 0.2125,0.4463 0.2189,0.2166 0 0 0 0.243,0.0402 0.293,0.2899 0 0 0 0.1398,0.2196 3.9633,3.9211 0 0 0 1.8697,0.4379 1.2809,1.2673 0 0 0 0.6022,-0.1586 0.2077,0.2055 0 0 0 0.2412,0.0392 0.8585,0.8493 0 0 0 0.4037,-0.418 v -1.1937 a 1.6353,1.618 0 0 0 -1.0177,-1.4147 l -0.0094,-7e-4 a 1.106,1.0942 0 1 0 -1.6681,-0.1173 z" />
            <path
       id="path1340"
       style="fill:none;fill-opacity:0;stroke:#000000;stroke-width:0.72000003;stroke-linecap:round;stroke-linejoin:round;stroke-dasharray:none;stroke-opacity:0"
       d="m 2.3985,5.8055 a 1.6682,1.6505 0 0 0 -1.0205,1.4434 l 0.0055,0.6766 a 0.5685,0.5625 0 0 0 0.2125,0.4463 0.2189,0.2166 0 0 0 0.243,0.0402 0.293,0.2899 0 0 0 0.1398,0.2196 3.9633,3.9211 0 0 0 1.8697,0.4379 1.2809,1.2673 0 0 0 0.6022,-0.1586 0.2077,0.2055 0 0 0 0.2412,0.0392 0.8585,0.8493 0 0 0 0.4037,-0.418 v -1.1937 a 1.6353,1.618 0 0 0 -1.0177,-1.4147 l -0.0094,-7e-4 a 1.106,1.0942 0 1 0 -1.6681,-0.1173" />
        </g>
        <g
     id="Layer1067">
            <defs
       id="defs1354">
                <filter
         id="shadow54"
         filterUnits="userSpaceOnUse">
                    <feOffset
           id="feOffset1343"
           dy="0.4961"
           dx="0.4961"
           result="offset"
           in="SourceGraphic" />
                    <feColorMatrix
           id="feColorMatrix1345"
           values="0 0 0 0 0.7490 0 0 0 0 0.7490 0 0 0 0 0.7490 0 0 0 1.0000 0"
           type="matrix"
           result="offset-color"
           in="offset" />
                    <feMerge
           id="feMerge1351">
                        <feMergeNode
             id="feMergeNode1347"
             in="offset-color" />
                        <feMergeNode
             id="feMergeNode1349"
             in="SourceGraphic" />
                    </feMerge>
                </filter>
            </defs>
            <defs
       id="defs1361">
                <radialGradient
         r="1"
         cy="0"
         cx="0"
         id="grad38">
                    <stop
           id="stop1356"
           stop-opacity="1.0000"
           stop-color="#ffffff"
           offset="0%" />
                    <stop
           id="stop1358"
           stop-opacity="1.0000"
           stop-color="#ff9900"
           offset="100%" />
                </radialGradient>
            </defs>
            <path
       id="path1363"
       style="fill:url(#grad38);fill-rule:evenodd;stroke-width:0.23999999;stroke-linecap:round;stroke-linejoin:round;filter:url(#shadow54)"
       d="m 2.3845,8.6316 a 3.9633,3.9211 0 0 0 1.8698,0.4379 1.2809,1.2673 0 0 0 0.6022,-0.1586 0.2077,0.2055 0 0 0 0.2412,0.0392 0.8585,0.8493 0 0 0 0.4037,-0.418 v -1.1937 a 1.6353,1.618 0 0 0 -1.0177,-1.4147 z m 0.4198,-2.8261 a 1.6682,1.6505 0 0 0 -1.0205,1.4434 l 0.0055,0.6766 a 0.5685,0.5625 0 0 0 0.2124,0.4463 0.2189,0.2166 0 0 0 0.2431,0.0402 0.293,0.2899 0 0 0 0.1397,0.2196 z" />
            <defs
       id="defs1376">
                <filter
         id="shadow55"
         filterUnits="userSpaceOnUse">
                    <feOffset
           id="feOffset1365"
           dy="0.4961"
           dx="0.4961"
           result="offset"
           in="SourceGraphic" />
                    <feColorMatrix
           id="feColorMatrix1367"
           values="0 0 0 0 0.7490 0 0 0 0 0.7490 0 0 0 0 0.7490 0 0 0 1.0000 0"
           type="matrix"
           result="offset-color"
           in="offset" />
                    <feMerge
           id="feMerge1373">
                        <feMergeNode
             id="feMergeNode1369"
             in="offset-color" />
                        <feMergeNode
             id="feMergeNode1371"
             in="SourceGraphic" />
                    </feMerge>
                </filter>
            </defs>
            <path
       id="path1378"
       style="fill:none;stroke:#000000;stroke-width:0.23999999;stroke-linecap:round;stroke-linejoin:round;stroke-dasharray:none;filter:url(#shadow55)"
       d="m 2.3845,8.6316 a 3.9633,3.9211 0 0 0 1.8698,0.4379 1.2809,1.2673 0 0 0 0.6022,-0.1586 0.2077,0.2055 0 0 0 0.2412,0.0392 0.8585,0.8493 0 0 0 0.4037,-0.418 v -1.1937 a 1.6353,1.618 0 0 0 -1.0177,-1.4147 m -1.6794,-0.1182 a 1.6682,1.6505 0 0 0 -1.0205,1.4434 l 0.0055,0.6766 a 0.5685,0.5625 0 0 0 0.2124,0.4463 0.2189,0.2166 0 0 0 0.2431,0.0402 0.293,0.2899 0 0 0 0.1397,0.2196" />
        </g>
        <g
     id="Layer1068">
            <defs
       id="defs1386">
                <radialGradient
         r="1"
         cy="0"
         cx="0"
         id="grad39">
                    <stop
           id="stop1381"
           stop-opacity="1.0000"
           stop-color="#ffffff"
           offset="0%" />
                    <stop
           id="stop1383"
           stop-opacity="1.0000"
           stop-color="#ff9900"
           offset="100%" />
                </radialGradient>
            </defs>
            <path
       id="path1388"
       style="fill:url(#grad39);fill-rule:evenodd;stroke-width:0.23999999;stroke-linecap:round;stroke-linejoin:round"
       d="m 4.7976,5.15 a 1.106,1.0942 -180 1 1 -1.106,-1.0942 1.106,1.0942 -180 0 1 1.106,1.0942 z" />
            <path
       id="path1390"
       style="fill:none;stroke:#000000;stroke-width:0.23999999;stroke-linecap:round;stroke-linejoin:round;stroke-dasharray:none"
       d="m 4.7976,5.15 a 1.106,1.0942 -180 1 1 -1.106,-1.0942 1.106,1.0942 -180 0 1 1.106,1.0942 z" />
        </g>
        <path
     id="path1393"
     style="fill:none;stroke:#000000;stroke-width:0.23999999;stroke-linecap:round;stroke-linejoin:round;stroke-dasharray:none"
     d="m 2.8068,5.7872 a 1.1081,1.0963 0 0 0 1.6701,0.1175" />
        <path
     id="path1395"
     style="fill:none;stroke:#000000;stroke-width:0.23999999;stroke-linecap:round;stroke-linejoin:round;stroke-dasharray:none"
     d="m 2.8043,5.8055 a 1.702,1.6839 0 0 0 -1.0205,1.444 l 0.0055,0.676 a 0.5685,0.5625 0 0 0 0.2124,0.4463 0.2189,0.2166 0 0 0 0.2431,0.0402 0.293,0.2899 0 0 0 0.1397,0.2196 3.9633,3.9211 0 0 0 1.8698,0.4379 1.2809,1.2673 0 0 0 0.6022,-0.1586 0.2077,0.2055 0 0 0 0.2412,0.0392 0.8585,0.8493 0 0 0 0.4037,-0.418 v -1.0829 a 1.619,1.6018 0 0 0 -1.0177,-1.5255 l -0.0094,-7e-4 a 1.1064,1.0946 0 1 0 -1.67,-0.1175 z" />
        <g
     id="Layer1069">
            <path
       id="path1397"
       style="fill:#ff00ff;fill-opacity:0;fill-rule:evenodd;stroke-width:0.72000003;stroke-linecap:round;stroke-linejoin:round"
       d="m 8.1572,3.1608 a 1.6682,1.6505 0 0 0 -1.0205,1.4434 l 0.0055,0.6766 a 0.5685,0.5625 0 0 0 0.2125,0.4463 0.2189,0.2166 0 0 0 0.243,0.0402 0.293,0.2899 0 0 0 0.1397,0.2195 3.9633,3.9211 0 0 0 1.8698,0.438 1.2809,1.2673 0 0 0 0.6022,-0.1587 0.2077,0.2055 0 0 0 0.2412,0.0393 0.8585,0.8493 0 0 0 0.4037,-0.418 v -1.1937 a 1.6353,1.618 0 0 0 -1.0177,-1.4147 l -0.0094,-7e-4 a 1.106,1.0942 0 1 0 -1.6681,-0.1174 z" />
            <path
       id="path1399"
       style="fill:none;fill-opacity:0;stroke:#000000;stroke-width:0.72000003;stroke-linecap:round;stroke-linejoin:round;stroke-dasharray:none;stroke-opacity:0"
       d="m 8.1572,3.1608 a 1.6682,1.6505 0 0 0 -1.0205,1.4434 l 0.0055,0.6766 a 0.5685,0.5625 0 0 0 0.2125,0.4463 0.2189,0.2166 0 0 0 0.243,0.0402 0.293,0.2899 0 0 0 0.1397,0.2195 3.9633,3.9211 0 0 0 1.8698,0.438 1.2809,1.2673 0 0 0 0.6022,-0.1587 0.2077,0.2055 0 0 0 0.2412,0.0393 0.8585,0.8493 0 0 0 0.4037,-0.418 v -1.1937 a 1.6353,1.618 0 0 0 -1.0177,-1.4147 l -0.0094,-7e-4 a 1.106,1.0942 0 1 0 -1.6681,-0.1174" />
        </g>
        <g
     id="Layer1070">
            <defs
       id="defs1413">
                <filter
         id="shadow56"
         filterUnits="userSpaceOnUse">
                    <feOffset
           id="feOffset1402"
           dy="0.4961"
           dx="0.4961"
           result="offset"
           in="SourceGraphic" />
                    <feColorMatrix
           id="feColorMatrix1404"
           values="0 0 0 0 0.7490 0 0 0 0 0.7490 0 0 0 0 0.7490 0 0 0 1.0000 0"
           type="matrix"
           result="offset-color"
           in="offset" />
                    <feMerge
           id="feMerge1410">
                        <feMergeNode
             id="feMergeNode1406"
             in="offset-color" />
                        <feMergeNode
             id="feMergeNode1408"
             in="SourceGraphic" />
                    </feMerge>
                </filter>
            </defs>
            <defs
       id="defs1420">
                <radialGradient
         r="1"
         cy="0"
         cx="0"
         id="grad40">
                    <stop
           id="stop1415"
           stop-opacity="1.0000"
           stop-color="#ffffff"
           offset="0%" />
                    <stop
           id="stop1417"
           stop-opacity="1.0000"
           stop-color="#edc753"
           offset="100%" />
                </radialGradient>
            </defs>
            <path
       id="path1422"
       style="fill:url(#grad40);fill-rule:evenodd;stroke-width:0.23999999;stroke-linecap:round;stroke-linejoin:round;filter:url(#shadow56)"
       d="m 8.1432,5.9868 a 3.9633,3.9211 0 0 0 1.8698,0.438 1.2809,1.2673 0 0 0 0.6021,-0.1587 0.2077,0.2055 0 0 0 0.2413,0.0393 0.8585,0.8493 0 0 0 0.4037,-0.418 v -1.1937 a 1.6353,1.618 0 0 0 -1.0177,-1.4147 z m 0.4198,-2.826 a 1.6682,1.6505 0 0 0 -1.0205,1.4434 l 0.0055,0.6766 a 0.5685,0.5625 0 0 0 0.2124,0.4463 0.2189,0.2166 0 0 0 0.243,0.0402 0.293,0.2899 0 0 0 0.1398,0.2195 z" />
            <defs
       id="defs1435">
                <filter
         id="shadow57"
         filterUnits="userSpaceOnUse">
                    <feOffset
           id="feOffset1424"
           dy="0.4961"
           dx="0.4961"
           result="offset"
           in="SourceGraphic" />
                    <feColorMatrix
           id="feColorMatrix1426"
           values="0 0 0 0 0.7490 0 0 0 0 0.7490 0 0 0 0 0.7490 0 0 0 1.0000 0"
           type="matrix"
           result="offset-color"
           in="offset" />
                    <feMerge
           id="feMerge1432">
                        <feMergeNode
             id="feMergeNode1428"
             in="offset-color" />
                        <feMergeNode
             id="feMergeNode1430"
             in="SourceGraphic" />
                    </feMerge>
                </filter>
            </defs>
            <path
       id="path1437"
       style="fill:none;stroke:#000000;stroke-width:0.23999999;stroke-linecap:round;stroke-linejoin:round;stroke-dasharray:none;filter:url(#shadow57)"
       d="m 8.1432,5.9868 a 3.9633,3.9211 0 0 0 1.8698,0.438 1.2809,1.2673 0 0 0 0.6021,-0.1587 0.2077,0.2055 0 0 0 0.2413,0.0393 0.8585,0.8493 0 0 0 0.4037,-0.418 v -1.1937 a 1.6353,1.618 0 0 0 -1.0177,-1.4147 m -1.6794,-0.1182 a 1.6682,1.6505 0 0 0 -1.0205,1.4434 l 0.0055,0.6766 a 0.5685,0.5625 0 0 0 0.2124,0.4463 0.2189,0.2166 0 0 0 0.243,0.0402 0.293,0.2899 0 0 0 0.1398,0.2195" />
        </g>
        <g
     id="Layer1071">
            <defs
       id="defs1445">
                <radialGradient
         r="1"
         cy="0"
         cx="0"
         id="grad41">
                    <stop
           id="stop1440"
           stop-opacity="1.0000"
           stop-color="#ffffff"
           offset="0%" />
                    <stop
           id="stop1442"
           stop-opacity="1.0000"
           stop-color="#edc753"
           offset="100%" />
                </radialGradient>
            </defs>
            <path
       id="path1447"
       style="fill:url(#grad41);fill-rule:evenodd;stroke-width:0.23999999;stroke-linecap:round;stroke-linejoin:round"
       d="m 10.5563,2.5052 a 1.106,1.0942 -180 1 1 -1.106,-1.0942 1.106,1.0942 -180 0 1 1.106,1.0942 z" />
            <path
       id="path1449"
       style="fill:none;stroke:#000000;stroke-width:0.23999999;stroke-linecap:round;stroke-linejoin:round;stroke-dasharray:none"
       d="m 10.5563,2.5052 a 1.106,1.0942 -180 1 1 -1.106,-1.0942 1.106,1.0942 -180 0 1 1.106,1.0942 z" />
        </g>
        <path
     id="path1452"
     style="fill:none;stroke:#000000;stroke-width:0.23999999;stroke-linecap:round;stroke-linejoin:round;stroke-dasharray:none"
     d="m 8.5655,3.1424 a 1.1081,1.0963 0 0 0 1.67,0.1175" />
        <path
     id="path1454"
     style="fill:none;stroke:#000000;stroke-width:0.23999999;stroke-linecap:round;stroke-linejoin:round;stroke-dasharray:none"
     d="m 8.563,3.1608 a 1.702,1.6839 0 0 0 -1.0205,1.4439 l 0.0055,0.6761 a 0.5685,0.5625 0 0 0 0.2124,0.4463 0.2189,0.2166 0 0 0 0.243,0.0402 0.293,0.2899 0 0 0 0.1398,0.2195 3.9633,3.9211 0 0 0 1.8698,0.438 1.2809,1.2673 0 0 0 0.6021,-0.1587 0.2077,0.2055 0 0 0 0.2413,0.0393 0.8585,0.8493 0 0 0 0.4037,-0.418 v -1.0829 a 1.619,1.6018 0 0 0 -1.0177,-1.5255 l -0.0094,-7e-4 a 1.1064,1.0946 0 1 0 -1.67,-0.1175 z" />
        <g
     id="Layer1072">
            <path
       id="path1456"
       style="fill:#ff00ff;fill-opacity:0;fill-rule:evenodd;stroke-width:0.72000003;stroke-linecap:round;stroke-linejoin:round"
       d="m 12.3115,4.685 a 1.6682,1.6505 0 0 0 -1.0205,1.4434 l 0.0055,0.6767 a 0.5685,0.5625 0 0 0 0.2125,0.4462 0.2189,0.2166 0 0 0 0.243,0.0403 0.293,0.2899 0 0 0 0.1398,0.2195 3.9633,3.9211 0 0 0 1.8697,0.4379 1.2809,1.2673 0 0 0 0.6022,-0.1586 0.2077,0.2055 0 0 0 0.2412,0.0392 0.8585,0.8493 0 0 0 0.4037,-0.418 v -1.1937 a 1.6353,1.618 0 0 0 -1.0177,-1.4147 l -0.0094,-6e-4 a 1.106,1.0942 0 1 0 -1.6681,-0.1174 z" />
            <path
       id="path1458"
       style="fill:none;fill-opacity:0;stroke:#000000;stroke-width:0.72000003;stroke-linecap:round;stroke-linejoin:round;stroke-dasharray:none;stroke-opacity:0"
       d="m 12.3115,4.685 a 1.6682,1.6505 0 0 0 -1.0205,1.4434 l 0.0055,0.6767 a 0.5685,0.5625 0 0 0 0.2125,0.4462 0.2189,0.2166 0 0 0 0.243,0.0403 0.293,0.2899 0 0 0 0.1398,0.2195 3.9633,3.9211 0 0 0 1.8697,0.4379 1.2809,1.2673 0 0 0 0.6022,-0.1586 0.2077,0.2055 0 0 0 0.2412,0.0392 0.8585,0.8493 0 0 0 0.4037,-0.418 v -1.1937 a 1.6353,1.618 0 0 0 -1.0177,-1.4147 l -0.0094,-6e-4 a 1.106,1.0942 0 1 0 -1.6681,-0.1174" />
        </g>
        <g
     id="Layer1073">
            <defs
       id="defs1472">
                <filter
         id="shadow58"
         filterUnits="userSpaceOnUse">
                    <feOffset
           id="feOffset1461"
           dy="0.4961"
           dx="0.4961"
           result="offset"
           in="SourceGraphic" />
                    <feColorMatrix
           id="feColorMatrix1463"
           values="0 0 0 0 0.7490 0 0 0 0 0.7490 0 0 0 0 0.7490 0 0 0 1.0000 0"
           type="matrix"
           result="offset-color"
           in="offset" />
                    <feMerge
           id="feMerge1469">
                        <feMergeNode
             id="feMergeNode1465"
             in="offset-color" />
                        <feMergeNode
             id="feMergeNode1467"
             in="SourceGraphic" />
                    </feMerge>
                </filter>
            </defs>
            <defs
       id="defs1479">
                <radialGradient
         r="1"
         cy="0"
         cx="0"
         id="grad42">
                    <stop
           id="stop1474"
           stop-opacity="1.0000"
           stop-color="#ffffff"
           offset="0%" />
                    <stop
           id="stop1476"
           stop-opacity="1.0000"
           stop-color="#edc753"
           offset="100%" />
                </radialGradient>
            </defs>
            <path
       id="path1481"
       style="fill:url(#grad42);fill-rule:evenodd;stroke-width:0.23999999;stroke-linecap:round;stroke-linejoin:round;filter:url(#shadow58)"
       d="m 10.7592,7.5845 a 3.9633,3.9211 0 0 0 1.8697,0.438 1.2809,1.2673 0 0 0 0.6022,-0.1587 0.2077,0.2055 0 0 0 0.2412,0.0393 0.8585,0.8493 0 0 0 0.4037,-0.418 v -1.1937 a 1.6353,1.618 0 0 0 -1.0177,-1.4147 z m 0.4197,-2.826 a 1.6682,1.6505 0 0 0 -1.0205,1.4434 l 0.0055,0.6766 a 0.5685,0.5625 0 0 0 0.2125,0.4463 0.2189,0.2166 0 0 0 0.243,0.0402 0.293,0.2899 0 0 0 0.1398,0.2195 z" />
            <defs
       id="defs1494">
                <filter
         id="shadow59"
         filterUnits="userSpaceOnUse">
                    <feOffset
           id="feOffset1483"
           dy="0.4961"
           dx="0.4961"
           result="offset"
           in="SourceGraphic" />
                    <feColorMatrix
           id="feColorMatrix1485"
           values="0 0 0 0 0.7490 0 0 0 0 0.7490 0 0 0 0 0.7490 0 0 0 1.0000 0"
           type="matrix"
           result="offset-color"
           in="offset" />
                    <feMerge
           id="feMerge1491">
                        <feMergeNode
             id="feMergeNode1487"
             in="offset-color" />
                        <feMergeNode
             id="feMergeNode1489"
             in="SourceGraphic" />
                    </feMerge>
                </filter>
            </defs>
            <path
       id="path1496"
       style="fill:none;stroke:#000000;stroke-width:0.23999999;stroke-linecap:round;stroke-linejoin:round;stroke-dasharray:none;filter:url(#shadow59)"
       d="m 10.7592,7.5845 a 3.9633,3.9211 0 0 0 1.8697,0.438 1.2809,1.2673 0 0 0 0.6022,-0.1587 0.2077,0.2055 0 0 0 0.2412,0.0393 0.8585,0.8493 0 0 0 0.4037,-0.418 v -1.1937 a 1.6353,1.618 0 0 0 -1.0177,-1.4147 m -1.6794,-0.1182 a 1.6682,1.6505 0 0 0 -1.0205,1.4434 l 0.0055,0.6766 a 0.5685,0.5625 0 0 0 0.2125,0.4463 0.2189,0.2166 0 0 0 0.243,0.0402 0.293,0.2899 0 0 0 0.1398,0.2195" />
        </g>
        <g
     id="Layer1074">
            <defs
       id="defs1504">
                <radialGradient
         r="1"
         cy="0"
         cx="0"
         id="grad43">
                    <stop
           id="stop1499"
           stop-opacity="1.0000"
           stop-color="#ffffff"
           offset="0%" />
                    <stop
           id="stop1501"
           stop-opacity="1.0000"
           stop-color="#edc753"
           offset="100%" />
                </radialGradient>
            </defs>
            <path
       id="path1506"
       style="fill:url(#grad43);fill-rule:evenodd;stroke-width:0.23999999;stroke-linecap:round;stroke-linejoin:round"
       d="m 13.1722,4.1029 a 1.106,1.0942 -180 1 1 -1.106,-1.0942 1.106,1.0942 -180 0 1 1.106,1.0942 z" />
            <path
       id="path1508"
       style="fill:none;stroke:#000000;stroke-width:0.23999999;stroke-linecap:round;stroke-linejoin:round;stroke-dasharray:none"
       d="m 13.1722,4.1029 a 1.106,1.0942 -180 1 1 -1.106,-1.0942 1.106,1.0942 -180 0 1 1.106,1.0942 z" />
        </g>
        <path
     id="path1513"
     style="fill:none;stroke:#000000;stroke-width:0.23999999;stroke-linecap:round;stroke-linejoin:round;stroke-dasharray:none"
     d="m 11.1789,4.7585 a 1.702,1.6839 0 0 0 -1.0205,1.444 l 0.0055,0.676 a 0.5685,0.5625 0 0 0 0.2125,0.4463 0.2189,0.2166 0 0 0 0.243,0.0402 0.293,0.2899 0 0 0 0.1398,0.2195 3.9633,3.9211 0 0 0 1.8697,0.438 1.2809,1.2673 0 0 0 0.6022,-0.1587 0.2077,0.2055 0 0 0 0.2412,0.0393 0.8585,0.8493 0 0 0 0.4037,-0.418 v -1.0829 a 1.619,1.6018 0 0 0 -1.0177,-1.5255 l -0.0094,-7e-4 a 1.1064,1.0946 0 1 0 -1.67,-0.1175 z" />
        <g
     id="Layer1075">
            <defs
       id="defs1526">
                <filter
         id="shadow60"
         filterUnits="userSpaceOnUse">
                    <feOffset
           id="feOffset1515"
           dy="0.4961"
           dx="0.4961"
           result="offset"
           in="SourceGraphic" />
                    <feColorMatrix
           id="feColorMatrix1517"
           values="0 0 0 0 0.7490 0 0 0 0 0.7490 0 0 0 0 0.7490 0 0 0 1.0000 0"
           type="matrix"
           result="offset-color"
           in="offset" />
                    <feMerge
           id="feMerge1523">
                        <feMergeNode
             id="feMergeNode1519"
             in="offset-color" />
                        <feMergeNode
             id="feMergeNode1521"
             in="SourceGraphic" />
                    </feMerge>
                </filter>
            </defs>
            <defs
       id="defs1533">
                <radialGradient
         r="1"
         cy="0"
         cx="0"
         id="grad44">
                    <stop
           id="stop1528"
           stop-opacity="1.0000"
           stop-color="#ffffff"
           offset="0%" />
                    <stop
           id="stop1530"
           stop-opacity="1.0000"
           stop-color="#edc753"
           offset="100%" />
                </radialGradient>
            </defs>
            <path
       id="path1535"
       style="fill:url(#grad44);fill-rule:evenodd;stroke-width:0.23999999;stroke-linecap:round;stroke-linejoin:round;filter:url(#shadow60)"
       d="m 13.2843,9.1273 a 3.9633,3.9211 0 0 0 1.8698,0.4379 1.2809,1.2673 0 0 0 0.6022,-0.1586 0.2077,0.2055 0 0 0 0.2412,0.0392 0.8585,0.8493 0 0 0 0.4037,-0.418 v -1.1937 a 1.6353,1.618 0 0 0 -1.0177,-1.4147 z m 0.4198,-2.826 a 1.6682,1.6505 0 0 0 -1.0205,1.4434 l 0.0055,0.6766 a 0.5685,0.5625 0 0 0 0.2125,0.4463 0.2189,0.2166 0 0 0 0.243,0.0402 0.293,0.2899 0 0 0 0.1397,0.2195 z" />
            <defs
       id="defs1548">
                <filter
         id="shadow61"
         filterUnits="userSpaceOnUse">
                    <feOffset
           id="feOffset1537"
           dy="0.4961"
           dx="0.4961"
           result="offset"
           in="SourceGraphic" />
                    <feColorMatrix
           id="feColorMatrix1539"
           values="0 0 0 0 0.7490 0 0 0 0 0.7490 0 0 0 0 0.7490 0 0 0 1.0000 0"
           type="matrix"
           result="offset-color"
           in="offset" />
                    <feMerge
           id="feMerge1545">
                        <feMergeNode
             id="feMergeNode1541"
             in="offset-color" />
                        <feMergeNode
             id="feMergeNode1543"
             in="SourceGraphic" />
                    </feMerge>
                </filter>
            </defs>
            <path
       id="path1550"
       style="fill:none;stroke:#000000;stroke-width:0.23999999;stroke-linecap:round;stroke-linejoin:round;stroke-dasharray:none;filter:url(#shadow61)"
       d="m 13.2843,9.1273 a 3.9633,3.9211 0 0 0 1.8698,0.4379 1.2809,1.2673 0 0 0 0.6022,-0.1586 0.2077,0.2055 0 0 0 0.2412,0.0392 0.8585,0.8493 0 0 0 0.4037,-0.418 v -1.1937 a 1.6353,1.618 0 0 0 -1.0177,-1.4147 m -1.6794,-0.1181 a 1.6682,1.6505 0 0 0 -1.0205,1.4434 l 0.0055,0.6766 a 0.5685,0.5625 0 0 0 0.2125,0.4463 0.2189,0.2166 0 0 0 0.243,0.0402 0.293,0.2899 0 0 0 0.1397,0.2195" />
        </g>
        <g
     id="Layer1076">
            <defs
       id="defs1558">
                <radialGradient
         r="1"
         cy="0"
         cx="0"
         id="grad45">
                    <stop
           id="stop1553"
           stop-opacity="1.0000"
           stop-color="#ffffff"
           offset="0%" />
                    <stop
           id="stop1555"
           stop-opacity="1.0000"
           stop-color="#edc753"
           offset="100%" />
                </radialGradient>
            </defs>
            <path
       id="path1560"
       style="fill:url(#grad45);fill-rule:evenodd;stroke-width:0.23999999;stroke-linecap:round;stroke-linejoin:round"
       d="m 15.6974,5.6457 a 1.106,1.0942 -180 1 1 -1.106,-1.0942 1.106,1.0942 -180 0 1 1.106,1.0942 z" />
            <path
       id="path1562"
       style="fill:none;stroke:#000000;stroke-width:0.23999999;stroke-linecap:round;stroke-linejoin:round;stroke-dasharray:none"
       d="m 15.6974,5.6457 a 1.106,1.0942 -180 1 1 -1.106,-1.0942 1.106,1.0942 -180 0 1 1.106,1.0942 z" />
        </g>
        <path
     id="path1565"
     style="fill:none;stroke:#000000;stroke-width:0.23999999;stroke-linecap:round;stroke-linejoin:round;stroke-dasharray:none"
     d="m 13.7066,6.2829 a 1.1081,1.0963 0 0 0 1.6701,0.1175" />
        <path
     id="path1567"
     style="fill:none;stroke:#000000;stroke-width:0.23999999;stroke-linecap:round;stroke-linejoin:round;stroke-dasharray:none"
     d="m 13.7041,6.3013 a 1.702,1.6839 0 0 0 -1.0205,1.4439 l 0.0055,0.6761 a 0.5685,0.5625 0 0 0 0.2125,0.4463 0.2189,0.2166 0 0 0 0.243,0.0402 0.293,0.2899 0 0 0 0.1397,0.2195 3.9633,3.9211 0 0 0 1.8698,0.4379 1.2809,1.2673 0 0 0 0.6022,-0.1586 0.2077,0.2055 0 0 0 0.2412,0.0392 0.8585,0.8493 0 0 0 0.4037,-0.418 v -1.0828 a 1.619,1.6018 0 0 0 -1.0177,-1.5256 l -0.0094,-6e-4 a 1.1064,1.0946 0 1 0 -1.67,-0.1175 z" />
    </g>
    <text
     id="text1571"
     y="8"
     x="13">
        <tspan
       style="font-variant: small-caps;font-size:7px;font-family:Arial;fill:#000000;fill-opacity:1;stroke-opacity:1"
       id="tspan1569"
       font-size="8.0000">Org Unit</tspan>
    </text>
</svg>