<?xml version="1.0" encoding="UTF-8" standalone="no"?>
<svg
   xmlns:dc="http://purl.org/dc/elements/1.1/"
   xmlns:cc="http://creativecommons.org/ns#"
   xmlns:rdf="http://www.w3.org/1999/02/22-rdf-syntax-ns#"
   xmlns:svg="http://www.w3.org/2000/svg"
   xmlns="http://www.w3.org/2000/svg"
   xmlns:xlink="http://www.w3.org/1999/xlink"
   viewBox="0 0 90 53"
   id="svg5246"
   width="90"
   height="53"
   version="1.1">
 <g
     id="Layer1077">
    <defs
       id="defs1584">
      <filter
         id="shadow62"
         filterUnits="userSpaceOnUse">
        <feOffset
           id="feOffset1573"
           dy="1.4173"
           dx="1.4173"
           result="offset"
           in="SourceGraphic" />
        <feColorMatrix
           id="feColorMatrix1575"
           values="0 0 0 0 0.7490 0 0 0 0 0.7490 0 0 0 0 0.7490 0 0 0 1.0000 0"
           type="matrix"
           result="offset-color"
           in="offset" />
        <feMerge
           id="feMerge1581">
          <feMergeNode
             id="feMergeNode1577"
             in="offset-color" />
          <feMergeNode
             id="feMergeNode1579"
             in="SourceGraphic" />
        </feMerge>
      </filter>
    </defs>
    <defs
       id="defs1592">
      <linearGradient
         id="grad46">
        <stop
           id="stop1586"
           stop-opacity="1.0000"
           stop-color="#d5dfeb"
           offset="0%" />
        <stop
           id="stop1588"
           stop-opacity="1.0000"
           stop-color="#ffffff"
           offset="100%" />
      </linearGradient>
      <linearGradient
         gradientUnits="objectBoundingBox"
         gradientTransform="rotate(180,0.5,0.5)"
         y2="1"
         x2="0"
         y1="0"
         x1="0"
         id="grad47"
         xlink:href="#grad46" />
    </defs>
    <path
       id="path1594"
       style="fill:url(#grad47);fill-rule:evenodd;stroke-width:0.5;stroke-linecap:round;stroke-linejoin:round;filter:url(#shadow62)"
       d="m 88,4.5 a 4.3596,4.3596 0 0 0 -4.252,-4.252 h -79 a 4.3596,4.3596 0 0 0 -4.252,4.252 v 43 a 4.3596,4.3596 0 0 0 4.252,4.252 h 79 a 4.3596,4.3596 0 0 0 4.252,-4.252 z" />
    <defs
       id="defs1607">
      <filter
         id="shadow63"
         filterUnits="userSpaceOnUse">
        <feOffset
           id="feOffset1596"
           dy="1.4173"
           dx="1.4173"
           result="offset"
           in="SourceGraphic" />
        <feColorMatrix
           id="feColorMatrix1598"
           values="0 0 0 0 0.7490 0 0 0 0 0.7490 0 0 0 0 0.7490 0 0 0 1.0000 0"
           type="matrix"
           result="offset-color"
           in="offset" />
        <feMerge
           id="feMerge1604">
          <feMergeNode
             id="feMergeNode1600"
             in="offset-color" />
          <feMergeNode
             id="feMergeNode1602"
             in="SourceGraphic" />
        </feMerge>
      </filter>
    </defs>
    <path
       id="path1609"
       style="fill:none;stroke:#000000;stroke-width:0.5;stroke-linecap:round;stroke-linejoin:round;stroke-dasharray:none;"
       d="m 88,4.5 a 4.3596,4.3596 0 0 0 -4.252,-4.252 h -79 a 4.3596,4.3596 0 0 0 -4.252,4.252 v 43 a 4.3596,4.3596 0 0 0 4.252,4.252 h 79 a 4.3596,4.3596 0 0 0 4.252,-4.252 z" />
  </g>
  <g
     id="Layer1078">
    <defs
       id="defs1623">
      <filter
         id="shadow64"
         filterUnits="userSpaceOnUse">
        <feOffset
           id="feOffset1612"
           dy="0.4961"
           dx="0.4961"
           result="offset"
           in="SourceGraphic" />
        <feColorMatrix
           id="feColorMatrix1614"
           values="0 0 0 0 0.7490 0 0 0 0 0.7490 0 0 0 0 0.7490 0 0 0 1.0000 0"
           type="matrix"
           result="offset-color"
           in="offset" />
        <feMerge
           id="feMerge1620">
          <feMergeNode
             id="feMergeNode1616"
             in="offset-color" />
          <feMergeNode
             id="feMergeNode1618"
             in="SourceGraphic" />
        </feMerge>
      </filter>
    </defs>
    <defs
       id="defs1630">
      <radialGradient
         r="1"
         cy="0"
         cx="0"
         id="grad48">
        <stop
           id="stop1625"
           stop-opacity="1.0000"
           stop-color="#ffffff"
           offset="0%" />
        <stop
           id="stop1627"
           stop-opacity="1.0000"
           stop-color="#afc2da"
           offset="100%" />
      </radialGradient>
    </defs>
    <path
       id="path1632"
       style="fill:url(#grad48);stroke:#373773;fill-rule:evenodd;stroke-width:0.23999999;stroke-linecap:round;stroke-linejoin:round;filter:url(#shadow64)"
       d="m 3.2417,11.097 a 9.4904,9.0166 0 0 0 4.4773,1.007 3.0673,2.9142 0 0 0 1.4419,-0.3647 0.4973,0.4725 0 0 0 0.5777,0.0902 2.0556,1.953 0 0 0 0.9666,-0.9612 v -2.7449 a 3.916,3.7205 0 0 0 -2.4369,-3.2532 z m 1.0051,-6.4985 a 3.9947,3.7953 0 0 0 -2.4437,3.3191 l 0.0132,1.5559 a 1.3613,1.2934 0 0 0 0.5087,1.0262 0.5242,0.4981 0 0 0 0.582,0.0925 0.7015,0.6665 0 0 0 0.3347,0.5048 z" />
  </g>
  <g
     id="Layer1079">
    <defs
       id="defs1655">
      <radialGradient
         r="1"
         cy="0"
         cx="0"
         id="grad49">
        <stop
           id="stop1650"
           stop-opacity="1.0000"
           stop-color="#ffffff"
           offset="0%" />
        <stop
           id="stop1652"
           stop-opacity="1.0000"
           stop-color="#afc2da"
           offset="100%" />
      </radialGradient>
    </defs>
    <path
       id="path1657"
       style="fill:url(#grad49);stroke:#555555;fill-rule:evenodd;stroke-width:0.23999999;stroke-linecap:round;stroke-linejoin:round"
       d="m 9.0199,3.0911 a 2.6484,2.5162 -180 1 1 -2.6484,-2.5162 2.6484,2.5162 -180 0 1 2.6484,2.5162 z" />
  </g>
  <path
     id="path1662"
     style="fill:none;stroke:#555555;stroke-width:0.23999999;stroke-linecap:round;stroke-linejoin:round;stroke-dasharray:none"
     d="m 4.2529,4.5563 a 2.6533,2.5209 0 0 0 3.999,0.2702" />
  <path
     id="path1664"
     style="fill:none;stroke:#000000;stroke-width:0.23999999;stroke-linecap:round;stroke-linejoin:round;stroke-dasharray:none"
     d="m 4.2529,4.5985 a 4.0756,3.8722 0 0 0 -2.4437,3.3204 l 0.0132,1.5546 a 1.3613,1.2934 0 0 0 0.5087,1.0262 0.5242,0.4981 0 0 0 0.582,0.0925 0.7015,0.6665 0 0 0 0.3347,0.5048 9.4904,9.0166 0 0 0 4.4773,1.007 3.0673,2.9142 0 0 0 1.4419,-0.3647 0.4973,0.4725 0 0 0 0.5777,0.0902 2.0556,1.953 0 0 0 0.9666,-0.9612 v -2.4901 a 3.8769,3.6834 0 0 0 -2.4369,-3.508 l -0.0225,-0.001 a 2.6494,2.5171 0 1 0 -3.999,-0.2702 z" />
  <g
     id="Layer1080">
    <defs
       id="defs1677">
      <filter
         id="shadow66"
         filterUnits="userSpaceOnUse">
        <feOffset
           id="feOffset1666"
           dy="0.4961"
           dx="0.4961"
           result="offset"
           in="SourceGraphic" />
        <feColorMatrix
           id="feColorMatrix1668"
           values="0 0 0 0 0.7490 0 0 0 0 0.7490 0 0 0 0 0.7490 0 0 0 1.0000 0"
           type="matrix"
           result="offset-color"
           in="offset" />
        <feMerge
           id="feMerge1674">
          <feMergeNode
             id="feMergeNode1670"
             in="offset-color" />
          <feMergeNode
             id="feMergeNode1672"
             in="SourceGraphic" />
        </feMerge>
      </filter>
    </defs>
    <defs
       id="defs1685">
      <linearGradient
         id="grad50">
        <stop
           id="stop1679"
           stop-opacity="1.0000"
           stop-color="#ffffff"
           offset="0%" />
        <stop
           id="stop1681"
           stop-opacity="1.0000"
           stop-color="#facca7"
           offset="100%" />
      </linearGradient>
      <linearGradient
         gradientUnits="objectBoundingBox"
         y2="1"
         x2="0"
         y1="0"
         x1="0"
         id="grad51"
         xlink:href="#grad50" />
    </defs>
    <path
       id="path1687"
       style="fill:url(#grad51);stroke:#000000;fill-rule:evenodd;stroke-width:0.23999999;stroke-linecap:round;stroke-linejoin:round;filter:url(#shadow66)"
       d="m 8.4173,12.7637 h 4.0495 a 0.6749,0.6553 0 0 0 0.6749,-0.6553 v -5.2426 a 0.6749,0.6553 0 0 0 -0.6749,-0.6553 h -4.0495 a 0.6749,0.6553 0 0 0 -0.6749,0.6553 v 5.2426 a 0.6749,0.6553 0 0 0 0.6749,0.6553 z" />
  </g>
  <g
     id="Layer1081">
    <defs
       id="defs1711">
      <linearGradient
         id="grad52">
        <stop
           id="stop1705"
           stop-opacity="1.0000"
           stop-color="#f2f2f2"
           offset="0%" />
        <stop
           id="stop1707"
           stop-opacity="1.0000"
           stop-color="#a6a6a6"
           offset="100%" />
      </linearGradient>
      <linearGradient
         gradientUnits="objectBoundingBox"
         y2="1"
         x2="0"
         y1="0"
         x1="0"
         id="grad53"
         xlink:href="#grad52" />
    </defs>
    <path
       id="path1713"
       style="fill:url(#grad53);stroke:#000000;fill-rule:evenodd;stroke-width:0.23999999;stroke-linecap:round;stroke-linejoin:round"
       d="m 9.0922,6.9969 h 2.6997 v -0.7864 h -2.6997 z" />
  </g>
  <g
     id="Layer1082">
    <path
       id="path1718"
       style="fill:#f2f2f2;stroke:#000000;fill-rule:evenodd;stroke-width:0.23999999;stroke-linecap:round;stroke-linejoin:round"
       d="m 9.9021,6.2105 h 1.0799 v -0.7864 h -1.0799 z" />
  </g>
  <text
     id="text1725"
     y="8"
     x="13">
    <tspan
       style="font-variant: small-caps;font-size:7px;font-family:Arial;fill:#000000;fill-opacity:1;stroke-opacity:1"
       id="tspan1723"
       font-size="8.0000">Role</tspan>
  </text>
  </svg>